<svg xmlns="http://www.w3.org/2000/svg" height="32px" viewBox="0 0 241 224.5"><defs><style>.l{fill:#fff}</style></defs><path fill="none" d="M21.2 13.6h214.7v199.94H21.2z"/><path fill="#fff" fill-rule="evenodd" d="M159.6 0 0 75.8l81.3 148.7 159.6-75.8L159.6 0Z"/><path fill="#fa0" fill-rule="evenodd" d="M165.8 2.1 2.2 70 75 222.4l163.7-67.9Z"/><path fill="#aaa" fill-rule="evenodd" d="M172 4.5 4.7 64.3l64.2 155.8 167.3-59.8Z"/><path fill="#55f" fill-rule="evenodd" d="M178 7.1 7.6 58.7l55.3 158.7 170.4-51.6L178 7.1Z"/><path fill="#5f5" fill-rule="evenodd" d="m183.8 10.1-173 43.2 46.3 161.1 173.1-43.1Z"/><path fill="#67cbdf" fill-rule="evenodd" d="M189.9 13 14.4 48 52 211.5l175.5-35L189.9 13Z"/><path fill="#f55" fill-rule="evenodd" d="M194.9 16.8 18 42.9l28 164.8 176.9-26.1-28-164.8Z"/><path fill="#f5f" fill-rule="evenodd" d="M200.2 20.6 22 38l18.7 166 178.2-17.5-18.7-165.9Z"/><path fill="#ff5" fill-rule="evenodd" d="M205.2 24.6 26.3 33.3l9.4 166.6 178.9-8.7-9.4-166.6Z"/><path fill="#444" d="M30.9 28.8h179.2v166.88H30.9z"/><path d="M163.5 103.2c-9.7-3.6-24 10.2-31 31.4a83.9 83.9 0 0 0-3.5 35.9l-4.5-1.9c-8.6-26.7-3.8-55.9 11.1-77Z" class="l"/><path d="m169.8 148.8-33.2-13.7c6.1-18.5 17.4-29.6 24.7-29.6a7.8 7.8 0 0 1 2.2.4l.6.3c2.6 1.2 10.5 8 5.7 42.6M157.9 66.7a73.4 73.4 0 0 0-25.8 23.4c-14.6 21.2-19.6 49.9-12 76.7a82.2 82.2 0 0 0 3.3 9.5l-44.5-18.4c-16.8-41.2-1.4-90.3 34.5-109.7Z" class="l"/></svg>
