<?xml version="1.0" standalone="no"?>
<!DOCTYPE svg PUBLIC "-//W3C//DTD SVG 20010904//EN"
 "http://www.w3.org/TR/2001/REC-SVG-20010904/DTD/svg10.dtd">
<svg version="1.0" xmlns="http://www.w3.org/2000/svg"
 width="700.000000pt" height="700.000000pt" viewBox="0 0 700.000000 700.000000"
 preserveAspectRatio="xMidYMid meet">
<metadata>
Created by potrace 1.14, written by Peter Selinger 2001-2017
</metadata>
<g transform="translate(0.000000,700.000000) scale(0.100000,-0.100000)"
fill="#000000" stroke="none">
<path d="M3950 6833 c-52 -36 -125 -86 -162 -111 l-68 -45 -45 42 c-24 22 -49
41 -54 41 -9 0 -359 -284 -869 -707 l-233 -193 -764 0 -765 0 0 -229 0 -229
-138 -32 c-333 -78 -347 -82 -350 -111 -2 -20 64 -311 94 -410 3 -11 -11 -22
-46 -39 -27 -13 -50 -28 -50 -34 0 -12 109 -366 326 -1054 l165 -523 -3 -120
-3 -121 -215 453 c-118 250 -260 550 -317 667 -115 239 -103 228 -183 156 -20
-19 -42 -34 -47 -34 -9 0 -150 -104 -176 -130 -13 -12 198 -323 282 -415 l36
-40 -37 34 -38 35 -23 -22 c-13 -13 -30 -33 -37 -46 -12 -23 1 -40 232 -322
134 -165 308 -378 386 -475 l142 -176 2 -849 3 -849 277 -3 276 -2 11 -43 c84
-339 102 -397 123 -397 10 0 108 23 218 50 110 28 201 50 203 50 2 0 15 -22
28 -50 13 -27 27 -50 31 -50 6 0 754 232 1323 409 122 39 137 41 252 41 68 0
123 -3 123 -7 -1 -5 -76 -44 -168 -88 -792 -378 -1035 -494 -1039 -499 -3 -3
15 -29 41 -59 25 -30 46 -59 46 -64 0 -5 31 -51 69 -101 l68 -92 179 126 c98
70 192 138 208 153 25 23 27 23 15 4 -13 -21 -11 -26 26 -63 l41 -40 249 201
c138 111 340 275 449 363 l199 161 831 0 831 0 3 292 2 292 53 16 c28 9 122
31 207 50 243 55 260 61 260 91 0 21 -75 339 -95 404 -3 10 13 24 50 44 30 16
55 32 55 36 0 11 -277 907 -415 1345 -114 358 -116 367 -113 447 l3 83 204
-425 c112 -234 256 -535 319 -670 117 -249 138 -290 152 -290 4 0 47 30 96 66
49 37 117 87 152 111 56 41 61 47 49 62 -8 9 -40 53 -71 99 -31 45 -78 112
-106 148 l-50 66 45 51 c25 28 45 55 45 59 0 4 -189 237 -420 519 l-420 512 0
753 0 754 -98 0 c-55 0 -166 3 -249 7 l-150 6 -42 171 c-23 94 -56 222 -73
284 -28 104 -32 112 -55 112 -20 0 -334 -74 -404 -95 -11 -4 -22 10 -39 46
-21 45 -27 50 -50 45 -54 -11 -1728 -526 -1770 -545 -60 -26 -106 -33 -158
-24 -42 8 -37 11 703 362 410 195 748 357 750 361 3 4 -18 36 -46 71 -28 35
-78 103 -110 152 -33 48 -63 87 -67 87 -4 0 -50 -30 -102 -67z m-230 -167 c0
-2 -8 -10 -17 -17 -16 -13 -17 -12 -4 4 13 16 21 21 21 13z m-70 -50 c0 -3
-15 -14 -32 -26 l-33 -22 30 26 c31 27 35 29 35 22z m-100 -70 c0 -3 -15 -14
-32 -26 l-33 -22 30 26 c31 27 35 29 35 22z m-130 -90 c0 -2 -8 -10 -17 -17
-16 -13 -17 -12 -4 4 13 16 21 21 21 13z m-70 -50 c0 -3 -15 -14 -32 -26 l-33
-22 30 26 c31 27 35 29 35 22z m-100 -70 c0 -3 -15 -14 -32 -26 l-33 -22 30
26 c31 27 35 29 35 22z m-70 -50 c0 -3 -15 -14 -32 -26 l-33 -22 30 26 c31 27
35 29 35 22z m-100 -70 c0 -2 -8 -10 -17 -17 -16 -13 -17 -12 -4 4 13 16 21
21 21 13z m-70 -50 c0 -2 -8 -10 -17 -17 -16 -13 -17 -12 -4 4 13 16 21 21 21
13z m-70 -50 c0 -2 -8 -10 -17 -17 -16 -13 -17 -12 -4 4 13 16 21 21 21 13z
m-70 -50 c0 -2 -8 -10 -17 -17 -16 -13 -17 -12 -4 4 13 16 21 21 21 13z m-40
-30 c0 -3 -15 -14 -32 -26 l-33 -22 30 26 c31 27 35 29 35 22z m-70 -50 c0 -3
-15 -14 -32 -26 l-33 -22 30 26 c31 27 35 29 35 22z m-70 -50 c0 -2 -8 -10
-17 -17 -16 -13 -17 -12 -4 4 13 16 21 21 21 13z m-45 -36 c-3 -5 -16 -15 -28
-21 -19 -9 -19 -8 3 10 28 23 34 26 25 11z m1260 -830 c347 -144 636 -265 643
-269 8 -5 -18 -26 -75 -59 -599 -356 -1011 -1014 -1134 -1812 -33 -209 -33
-590 0 -800 28 -185 69 -353 121 -505 23 -66 44 -128 47 -137 4 -15 -16 -9
-103 27 -60 25 -363 150 -674 278 l-565 234 -38 104 c-22 57 -56 172 -77 255
-151 589 -108 1217 120 1773 202 492 531 888 948 1142 90 55 95 57 125 44 18
-7 316 -131 662 -275z m2055 -870 c12 -16 19 -30 16 -30 -2 0 -14 14 -26 30
-12 17 -19 30 -16 30 2 0 14 -13 26 -30z m50 -70 c12 -16 19 -30 16 -30 -2 0
-14 14 -26 30 -12 17 -19 30 -16 30 2 0 14 -13 26 -30z m41 -57 c13 -16 12
-17 -3 -4 -10 7 -18 15 -18 17 0 8 8 3 21 -13z m-1749 -206 l391 -162 -80 -6
c-136 -10 -252 -78 -403 -235 -252 -262 -448 -701 -515 -1154 -21 -141 -30
-443 -17 -565 5 -49 8 -92 6 -94 -2 -2 -33 8 -69 24 l-65 27 -21 71 c-32 107
-66 268 -85 402 -25 165 -25 532 -1 705 46 328 157 673 298 924 83 147 144
236 157 231 8 -3 189 -78 404 -168z m1799 136 c13 -16 12 -17 -3 -4 -10 7 -18
15 -18 17 0 8 8 3 21 -13z m50 -70 c13 -16 12 -17 -3 -4 -10 7 -18 15 -18 17
0 8 8 3 21 -13z m50 -70 c13 -16 12 -17 -3 -4 -10 7 -18 15 -18 17 0 8 8 3 21
-13z m89 -123 c12 -16 19 -30 16 -30 -2 0 -14 14 -26 30 -12 17 -19 30 -16 30
2 0 14 -13 26 -30z m61 -87 c13 -16 12 -17 -3 -4 -10 7 -18 15 -18 17 0 8 8 3
21 -13z m-1579 -68 c128 -85 197 -327 198 -695 0 -226 -31 -580 -52 -580 -13
0 -981 400 -991 410 -11 10 60 192 124 317 151 294 344 498 534 566 63 22 136
15 187 -18z m-4382 -5 c12 -16 19 -30 16 -30 -2 0 -14 14 -26 30 -12 17 -19
30 -16 30 2 0 14 -13 26 -30z m6011 3 c13 -16 12 -17 -3 -4 -10 7 -18 15 -18
17 0 8 8 3 21 -13z m70 -100 c13 -16 12 -17 -3 -4 -10 7 -18 15 -18 17 0 8 8
3 21 -13z m-6000 -20 c13 -16 12 -17 -3 -4 -10 7 -18 15 -18 17 0 8 8 3 21
-13z m6050 -50 c13 -16 12 -17 -3 -4 -10 7 -18 15 -18 17 0 8 8 3 21 -13z
m-5971 -63 c12 -16 19 -30 16 -30 -2 0 -14 14 -26 30 -12 17 -19 30 -16 30 2
0 14 -13 26 -30z m6041 -37 c13 -16 12 -17 -3 -4 -10 7 -18 15 -18 17 0 8 8 3
21 -13z m-5971 -63 c12 -16 19 -30 16 -30 -2 0 -14 14 -26 30 -12 17 -19 30
-16 30 2 0 14 -13 26 -30z m6021 -7 c13 -16 12 -17 -3 -4 -10 7 -18 15 -18 17
0 8 8 3 21 -13z m-5931 -123 c12 -16 19 -30 16 -30 -2 0 -14 14 -26 30 -12 17
-19 30 -16 30 2 0 14 -13 26 -30z m61 -87 c13 -16 12 -17 -3 -4 -10 7 -18 15
-18 17 0 8 8 3 21 -13z m59 -83 c12 -16 19 -30 16 -30 -2 0 -14 14 -26 30 -12
17 -19 30 -16 30 2 0 14 -13 26 -30z m70 -100 c12 -16 19 -30 16 -30 -2 0 -14
14 -26 30 -12 17 -19 30 -16 30 2 0 14 -13 26 -30z m70 -101 c15 -28 5 -23
-15 7 -9 15 -12 23 -6 20 6 -4 16 -16 21 -27z m3180 -1813 c0 -2 -7 -7 -16
-10 -8 -3 -12 -2 -9 4 6 10 25 14 25 6z m-70 -40 c0 -2 -8 -10 -17 -17 -16
-13 -17 -12 -4 4 13 16 21 21 21 13z m-70 -50 c0 -3 -15 -14 -32 -26 l-33 -22
30 26 c31 27 35 29 35 22z m-100 -70 c0 -2 -8 -10 -17 -17 -16 -13 -17 -12 -4
4 13 16 21 21 21 13z m-70 -50 c0 -3 -15 -14 -32 -26 l-33 -22 30 26 c31 27
35 29 35 22z m-100 -70 c0 -3 -15 -14 -32 -26 l-33 -22 30 26 c31 27 35 29 35
22z m-100 -70 c0 -3 -15 -14 -32 -26 l-33 -22 30 26 c31 27 35 29 35 22z
m-130 -90 c0 -3 -15 -14 -32 -26 l-33 -22 30 26 c31 27 35 29 35 22z m-100
-70 c0 -3 -15 -14 -32 -26 l-33 -22 30 26 c31 27 35 29 35 22z m-70 -49 c0 -2
-10 -12 -22 -23 l-23 -19 19 23 c18 21 26 27 26 19z"/>
</g>
</svg>
