<svg xmlns="http://www.w3.org/2000/svg" viewBox="0 0 200 200" fill="#F7CF0D"><path d="M190 0H10C4.5 0 0 4.5 0 10v180c0 5.5 4.5 10 10 10h16.1c-1.7-45.7-.1-52.5 3.1-57 3.9-5.6 5.5-6.3 11.4-11 5-4 3.2-10.5-.4-15.2-2.2-2.9-5.3-6.3-7.7-9.6-1.5-2.2 2.2-15.1 3.6-19.8 1.4-4.7 3.8-20 24.8-24.1 7.9-1.6 29.6-2.7 44.5-1.8-.1-.6-.3-1.3-.4-2-.3-1.2-.5-2.5-.8-3.9-.3-1.3-.6-2.7-.9-4.1-.3-1.4-.7-2.8-1-4.3-.4-1.5-.7-2.9-1.2-4.4-.8-3-1.8-5.9-3-8.7-.6-1.4-1.2-2.7-1.9-3.9-.7-1.1-1.4-2.1-2-2.5-.1-.1-.2-.2-.3-.2h-.1.2s.1 0 0 0l-.3-.1h-.2l-.4-.1h-.5c-1.3-.1-2.7-.1-4.2 0-2.9.2-6 .8-9 1.5s-5.9 1.6-8.7 2.4c-1.2.4-2.3.8-3.4 1.1.1.9.2 1.7.2 2.6 0 13-10.5 23.5-23.5 23.5S20.6 47.9 20.6 34.9s10.5-23.5 23.5-23.5c8.7 0 16.3 4.7 20.4 11.8 1-.4 2.1-.8 3.2-1.2 2.8-1.1 5.9-2.2 9.1-3.2 3.3-1 6.7-2 10.5-2.5 1.9-.3 3.9-.4 6.1-.3h.8c.3 0 .6.1.8.1H95.7l.3.1h.1l.3.1s.2 0 .3.1l.4.1c.6.2.9.3 1.3.5s.7.3 1.1.5c.7.4 1.3.8 1.9 1.2 1.1.9 2 1.8 2.7 2.7.8.9 1.4 1.8 2 2.7 1.2 1.8 2.1 3.5 2.9 5.2 1.6 3.4 2.9 6.8 3.9 10l1.5 4.8c.5 1.6.8 3.1 1.2 4.6.2.7.4 1.5.5 2.2.2.7.3 1.4.5 2.1.3 1.4.6 2.8.9 4.1.4 2 .7 3.9 1 5.6 22.4 2.2 39.5 5.1 47.2 12.8 11.3 11 20 61 14.3 124.5h10c5.5 0 10-4.5 10-10V10c0-5.5-4.5-10-10-10z"/><path d="M91.4 140.8c-1.3 3.6-2.4 45.7 10 45.7s12.5-43.2 12.1-45.7c-.4-2.4-20.8-3.5-22.1 0zM75 100c-8.5-1.2-13.6 40.2-1.7 42.6 11.2 2.2 10.1-41.4 1.7-42.6zM130.8 100c-8.5-1.2-13.6 40.2-1.7 42.6 11.2 2.2 10.2-41.4 1.7-42.6z"/></svg>