<svg xmlns="http://www.w3.org/2000/svg" width="512" height="512"><path d="M21.194 1.649H490.6a19.692 19.692 0 0 1 19.692 19.692v469.4a19.692 19.692 0 0 1-19.692 19.696H21.194A19.693 19.693 0 0 1 1.5 490.745V21.342A19.692 19.692 0 0 1 21.194 1.649z" fill-rule="evenodd" fill="#333"/><path d="M66.021 262.058L135.7 147.663l158.787-74.535 86.849 47.638 58.008 79.4-51.851 100.46 26.574 52.823-26.9 56.387-114.717 34.347-68.378-38.883-60.924-2.268-49.582-29.819-2.593-51.851zm142.589-27.545l25.6 4.861-12.638-64.813zm39.536 23.332l59.3 98.192 87.174-5.833-27.546-46.341-52.822 11.666zm57.684-161.06l9.4 55.739 39.86 32.407 58.656 8.749-48.61-65.461zm-66.758 27.221l-.324-2.916 46.666-24.629 4.213 25.6z" fill="#f7cf0d" fill-rule="evenodd"/></svg>