<?xml version="1.0" standalone="no"?>
<!DOCTYPE svg PUBLIC "-//W3C//DTD SVG 20010904//EN"
 "http://www.w3.org/TR/2001/REC-SVG-20010904/DTD/svg10.dtd">
<svg version="1.0" xmlns="http://www.w3.org/2000/svg"
 width="964.000000pt" height="964.000000pt" viewBox="0 0 964.000000 964.000000"
 preserveAspectRatio="xMidYMid meet">
<metadata>
Created by potrace 1.14, written by Peter Selinger 2001-2017
</metadata>
<g transform="translate(0.000000,964.000000) scale(0.100000,-0.100000)"
fill="#000000" stroke="none">
<path d="M6586 9199 c-10 -6 -55 -26 -100 -44 -44 -18 -164 -67 -266 -110
-102 -42 -223 -93 -270 -112 -112 -46 -170 -70 -320 -133 -69 -29 -150 -62
-180 -75 -30 -12 -107 -44 -170 -70 -63 -26 -140 -58 -170 -70 -30 -12 -127
-53 -215 -89 -88 -37 -198 -83 -245 -102 -47 -20 -110 -46 -140 -59 -30 -12
-95 -40 -145 -60 -49 -21 -126 -54 -170 -74 l-80 -36 -1436 -3 -1436 -2 -6
-143 c-4 -78 -8 -812 -8 -1632 -1 -914 -5 -1442 -10 -1365 -9 128 -52 892
-114 2000 -19 344 -37 660 -41 704 l-6 79 -87 -7 c-47 -4 -86 -8 -87 -9 -1 -1
3 -37 8 -80 5 -44 7 -81 4 -84 -2 -3 -40 -10 -83 -15 -43 -6 -81 -14 -85 -17
-4 -3 -3 -24 2 -46 5 -22 12 -67 15 -101 5 -58 35 -243 125 -769 48 -282 100
-588 175 -1030 97 -574 123 -727 155 -908 20 -113 30 -202 28 -245 l-3 -67
-26 95 c-15 52 -88 307 -162 565 -116 403 -215 747 -499 1735 -27 96 -54 179
-58 183 -11 12 -170 -35 -170 -50 0 -6 11 -43 25 -81 14 -38 25 -72 25 -75 0
-3 -35 -17 -77 -33 -43 -15 -79 -29 -81 -30 -2 -1 11 -37 28 -79 17 -43 29
-79 28 -80 -10 -9 -89 -44 -120 -54 -21 -7 -38 -14 -38 -16 0 -2 27 -58 60
-124 33 -67 60 -123 60 -125 0 -3 43 -94 96 -203 53 -109 109 -225 124 -258
15 -33 78 -166 140 -295 62 -129 161 -336 220 -460 59 -124 138 -288 175 -365
37 -77 82 -171 100 -210 18 -38 61 -128 96 -200 l64 -130 3 -1328 2 -1327
1753 -1 c963 -1 1743 -3 1732 -5 -11 -2 -213 -13 -450 -24 -236 -11 -754 -36
-1150 -55 -396 -19 -897 -44 -1113 -54 -217 -11 -395 -21 -398 -23 -4 -4 13
-159 18 -164 2 -1 41 2 87 6 47 5 88 7 92 4 4 -2 10 -33 14 -68 10 -94 6 -91
127 -77 213 25 278 33 463 61 105 16 316 47 470 70 154 22 386 56 515 75 129
20 343 51 475 71 238 35 483 71 935 138 207 30 462 54 420 38 -8 -3 -633 -159
-1388 -347 -755 -188 -1375 -344 -1377 -347 -5 -5 42 -147 51 -157 2 -2 39 6
83 19 44 12 86 20 93 17 7 -2 24 -33 37 -67 13 -34 29 -64 35 -66 7 -3 44 7
83 21 39 14 75 25 80 25 5 0 24 -31 43 -70 19 -38 37 -70 40 -70 3 0 93 36
200 81 261 109 350 145 445 184 44 18 125 52 180 75 55 23 137 57 183 76 187
77 256 105 432 179 102 42 210 87 240 100 121 50 280 115 375 155 55 23 136
57 180 75 44 18 114 47 155 65 153 65 31 60 1580 60 l1417 0 6 143 c4 78 8
797 8 1597 1 932 5 1408 11 1325 10 -161 66 -1143 114 -2020 19 -363 39 -667
42 -675 6 -13 20 -14 90 -7 l84 9 -7 83 c-8 94 -15 87 98 100 31 4 60 11 63
16 8 13 -30 272 -87 599 -16 91 -37 219 -48 285 -11 66 -40 242 -66 390 -25
149 -64 374 -85 500 -21 127 -55 325 -75 440 -20 116 -42 248 -50 295 -7 47
-29 178 -49 293 -21 123 -36 239 -35 285 l0 77 20 -75 c10 -41 30 -109 44
-150 13 -41 37 -122 54 -180 28 -100 204 -711 422 -1470 55 -190 123 -426 151
-525 28 -99 53 -182 54 -184 5 -6 164 41 169 50 3 4 -6 39 -20 77 -14 38 -25
73 -25 78 0 5 36 22 79 38 l80 28 -18 46 c-11 26 -24 59 -31 74 -7 15 -10 33
-7 40 2 7 38 26 79 42 l75 30 -82 170 c-45 94 -127 266 -183 381 -55 116 -150
315 -211 443 -61 127 -160 334 -220 460 -60 125 -131 274 -159 332 -97 204
-199 416 -238 495 l-39 80 -3 1333 -2 1332 -1743 1 c-958 1 -1735 3 -1727 5 8
2 211 13 450 24 239 11 705 34 1035 50 330 16 798 39 1040 50 242 11 468 22
503 26 70 6 69 3 55 113 l-6 53 -92 -7 -92 -7 -13 82 -13 82 -81 -6 c-90 -8
-258 -31 -761 -106 -187 -28 -401 -59 -475 -70 -74 -10 -209 -30 -300 -44 -91
-14 -275 -41 -410 -61 -135 -19 -348 -51 -475 -70 -618 -92 -707 -104 -800
-109 -94 -5 -17 16 1265 338 751 188 1377 346 1392 349 l27 7 -26 73 c-14 39
-29 76 -33 80 -4 5 -41 -1 -82 -12 -41 -12 -81 -21 -90 -21 -9 0 -25 26 -42
70 -15 39 -29 70 -32 70 -2 0 -40 -13 -85 -30 -46 -16 -83 -29 -85 -27 -1 1
-18 35 -38 75 -37 73 -46 80 -80 61z m-1809 -1918 c358 -149 1368 -569 1451
-603 39 -16 72 -33 72 -36 0 -4 -44 -33 -98 -65 -210 -125 -399 -276 -588
-469 -517 -530 -849 -1270 -935 -2083 -19 -179 -16 -598 5 -775 37 -307 111
-626 205 -874 23 -60 41 -110 41 -112 0 -1 -33 11 -72 27 -40 17 -109 46 -153
64 -44 18 -287 118 -540 223 -253 105 -581 240 -730 302 -148 61 -274 115
-278 119 -13 13 -86 225 -133 389 -45 157 -92 387 -115 572 -21 163 -19 739 4
899 63 444 175 817 353 1173 252 506 607 918 1038 1207 83 56 223 140 233 141
1 0 109 -45 240 -99z m1188 -1861 c281 -116 512 -214 515 -217 3 -3 -12 -3
-32 1 -89 16 -247 -34 -379 -120 -96 -62 -277 -243 -367 -364 -280 -381 -461
-849 -539 -1391 -13 -97 -17 -192 -18 -434 0 -170 4 -330 8 -354 8 -43 7 -43
-19 -37 -14 4 -56 21 -92 39 l-66 32 -34 120 c-269 973 -115 2032 414 2848 48
74 69 98 82 94 9 -2 247 -100 527 -217z m562 -345 c219 -65 336 -450 320
-1050 -5 -205 -39 -603 -55 -645 -7 -18 -45 -4 -877 341 -66 28 -193 80 -282
117 -90 36 -163 72 -163 79 0 26 95 255 159 383 118 235 243 412 397 560 128
123 224 184 337 215 68 18 103 18 164 0z"/>
</g>
</svg>
