<svg xmlns="http://www.w3.org/2000/svg" viewBox="0 0 241 224.5"><defs><style>.a{fill:none;}.b,.l{fill:#fff;}.b,.c,.d,.e,.f,.g,.h,.i,.j{fill-rule:evenodd;}.c{fill:#fa0;}.d{fill:#aaa;}.e{fill:#55f;}.f{fill:#5f5;}.g{fill:#67cbdf;}.h{fill:#f55;}.i{fill:#f5f;}.j{fill:#ff5;}.k{fill:#444;}</style></defs><rect class="a" x="21.2" y="13.6" width="214.7" height="199.94"/><path class="b" d="M550.8,399.5,391.2,475.3,472.5,624l159.6-75.8L550.8,399.5Z" transform="translate(-391.2 -399.5)"/><path class="c" d="M557,401.6,393.4,469.5l72.8,152.4L629.9,554Z" transform="translate(-391.2 -399.5)"/><path class="d" d="M563.2,404,395.9,463.8l64.2,155.8,167.3-59.8Z" transform="translate(-391.2 -399.5)"/><path class="e" d="M569.2,406.6,398.8,458.2l55.3,158.7,170.4-51.6L569.2,406.6Z" transform="translate(-391.2 -399.5)"/><path class="f" d="M575,409.6,402,452.8l46.3,161.1,173.1-43.1Z" transform="translate(-391.2 -399.5)"/><path class="g" d="M581.1,412.5l-175.5,35L443.2,611l175.5-35L581.1,412.5Z" transform="translate(-391.2 -399.5)"/><path class="h" d="M586.1,416.3,409.2,442.4l28,164.8,176.9-26.1-28-164.8Z" transform="translate(-391.2 -399.5)"/><path class="i" d="M591.4,420.1,413.2,437.5l18.7,166L610.1,586,591.4,420.1Z" transform="translate(-391.2 -399.5)"/><path class="j" d="M596.4,424.1l-178.9,8.7,9.4,166.6,178.9-8.7-9.4-166.6Z" transform="translate(-391.2 -399.5)"/><rect class="k" x="30.9" y="28.8" width="179.2" height="166.88"/><path class="l" d="M554.7,502.7c-9.7-3.6-24,10.2-31,31.4a83.9,83.9,0,0,0-3.5,35.9l-4.5-1.9c-8.6-26.7-3.8-55.9,11.1-77Z" transform="translate(-391.2 -399.5)"/><path class="l" d="M561,548.3l-33.2-13.7c6.1-18.5,17.4-29.6,24.7-29.6a7.8,7.8,0,0,1,2.2.4l.6.3c2.6,1.2,10.5,8,5.7,42.6" transform="translate(-391.2 -399.5)"/><path class="l" d="M549.1,466.2a73.4,73.4,0,0,0-25.8,23.4c-14.6,21.2-19.6,49.9-12,76.7a82.2,82.2,0,0,0,3.3,9.5l-44.5-18.4c-16.8-41.2-1.4-90.3,34.5-109.7Z" transform="translate(-391.2 -399.5)"/></svg>