<svg xmlns="http://www.w3.org/2000/svg" viewBox="0 0 209.3 209.3"><defs><style>.a{fill:none;}.b,.l{fill:#fff;}.b,.c,.d,.e,.f,.g,.h,.i,.j{fill-rule:evenodd;}.c{fill:#fa0;}.d{fill:#aaa;}.e{fill:#55f;}.f{fill:#5f5;}.g{fill:#67cbdf;}.h{fill:#f55;}.i{fill:#f5f;}.j{fill:#ff5;}.k{fill:#444;}</style></defs><rect class="a" x="18.4" y="12.7" width="186.4" height="186.45"/><path class="b" d="M546.4,407.1,407.7,477.8l70.7,138.6L617,545.8,546.4,407.1Z" transform="translate(-407.7 -407.1)"/><path class="c" d="M551.8,409,409.6,472.3l63.3,142.2,142.2-63.3Z" transform="translate(-407.7 -407.1)"/><path class="d" d="M557.1,411.3,411.8,467l55.8,145.3,145.3-55.8Z" transform="translate(-407.7 -407.1)"/><path class="e" d="M562.3,413.7l-148,48.1,48.1,148,148-48.1-48.1-148Z" transform="translate(-407.7 -407.1)"/><path class="f" d="M567.4,416.5,417.1,456.7,457.3,607l150.4-40.2Z" transform="translate(-407.7 -407.1)"/><path class="g" d="M572.7,419.2,420.2,451.8l32.7,152.5,152.5-32.6L572.7,419.2Z" transform="translate(-407.7 -407.1)"/><path class="h" d="M577,422.7,423.3,447.1l24.4,153.7,153.7-24.4L577,422.7Z" transform="translate(-407.7 -407.1)"/><path class="i" d="M581.6,426.3,426.9,442.5l16.2,154.8L597.9,581,581.6,426.3Z" transform="translate(-407.7 -407.1)"/><path class="j" d="M586,430l-155.4,8.1,8.1,155.4,155.4-8.1L586,430Z" transform="translate(-407.7 -407.1)"/><rect class="k" x="26.8" y="26.8" width="155.6" height="155.61"/><path class="l" d="M567.9,462,552,557.5a3.9,3.9,0,0,1-2,2.8,4.1,4.1,0,0,1-1.9.5,4,4,0,0,1-1.5-.3l-28.2-11.6-15,18.4a3.9,3.9,0,0,1-3,1.4,3.2,3.2,0,0,1-1.4-.3,3.8,3.8,0,0,1-2.6-3.8V543l53.7-65.7-66.5,57.4-24.5-10.1a3.8,3.8,0,0,1-2.5-3.4,3.8,3.8,0,0,1,2-3.8L562,457.9a3.6,3.6,0,0,1,4.2,0A3.9,3.9,0,0,1,567.9,462Z" transform="translate(-407.7 -407.1)"/></svg>