<svg xmlns="http://www.w3.org/2000/svg" viewBox="0 0 647.5 117.5"><defs><style>.a{fill:#444;}</style></defs><path class="a" d="M279.8,453c13.4,0,22.8,4.7,28,14.1l3.4,14c0,5.8-16.8,16.9-50.6,33.2-17.5,7.3-26.7,11.8-27.4,13.5-2.7,4.9-4.4,7.3-5.2,7.3a19,19,0,0,0-5.2,6.7h-1.2v.6l-.5-.6h-.6c-.9,0-2,2.5-3.5,7.4h-1.4l.6.5v.6q-1.8,0-8.7,13.5c-1.2,4.5-3.5,6.7-7,6.7v-1.1h-.3l-2.3.6-.7-.6h-.6l-1.7.6-1.2-1.2-1.1,1.2-4-4.5v-1c0-3.7,4.9-15.3,14.6-34.8l-1.8-.5.6-.6V528l-2.9-2.3-2.4.6-1.1-1.7.5-.5v-.6c-2.3,0-3.4-.6-3.4-1.7a140.8,140.8,0,0,1,22.6-13l11.6-23.2h-.6c-4.6,0-9.1-4.3-13.4-12.9v-5.1c3.2-3.9,11.4-7.1,24.5-9.5,7.5-1.6,21.6-3.3,42.4-5.1Zm-32,41.6h.6a173.3,173.3,0,0,0,34.8-20.8v-.6h-.6c-15.9.6-23.8,1.7-23.9,3.4l-10.9,18Z" transform="translate(-188.6 -453)"/><path class="a" d="M347,457.5c10.4,0,16.7,3,19,8.9a305.6,305.6,0,0,1,4.9,31.4l.5.6c0,2.4.8,3.6,1.6,3.6l17.4-2.1V501h.6l8.6-.5v1l-3.9,1v.6h3.9l3.8-.6v1.1a25.3,25.3,0,0,1-8.6,2.1v1.1l2.7-.6c2.5.7,3.9,1.4,3.9,2.1l2.7-.5c7.2.2,10.9.9,10.9,2.1l-.6.5,3.8,1.1v1q-7.3,3.8-30.3,6.3l-9.7,1.5c4.7,17.8,7,29.9,7,36.2v2.1l-1.6,1.6H383a6.4,6.4,0,0,1-3.9-1.6v1.6h-1.2v-1.1l-1.6,1.1-2.1-1.6-5.5,2.1-4.4-4.2q-2.7-4.2-8.1-30.9h-.5c-22.7,6-34.1,10.8-34.1,14.2A93.5,93.5,0,0,0,308.4,556q-3.7,4.2-6,4.2l-1.1-2.6-.5.5h-.5c-2.2-1.3-3.3-2.6-3.3-4.2l-.5.5h-1.1v-1.1c-1.5,0-3-1-4.3-3-1.5,0-2.2-.4-2.2-1.1v-3.7c0-3.9,4.3-10.4,13-19.3A274.5,274.5,0,0,1,320,501.5l18.4-31.4,3.9-10.5a9.2,9.2,0,0,1,4.7-2.1Zm-4.3,50.8v.5c6.1-1.5,9.2-2.5,9.2-3.1l-1.6-8.4a46.4,46.4,0,0,0-7.7,11Zm50.2-8.9H394v1.1h-1.1Zm.6,3.7v.5h1.1v-.5Z" transform="translate(-188.6 -453)"/><path class="a" d="M451.4,453q20.1,0,27.9,14.1l3.5,14q0,8.7-50.6,33.2c-17.6,7.3-26.7,11.8-27.4,13.5-2.7,4.9-4.5,7.3-5.3,7.3a20.2,20.2,0,0,0-5.2,6.7h-1.1v.6l-.6-.6H392c-.8,0-2,2.5-3.5,7.4h-1.1l.5.5v.6q-1.8,0-8.7,13.5c-1.2,4.5-3.5,6.7-7,6.7v-1.1h-.6l-2.3.6-.6-.6h-.6l-1.8.6-1.1-1.2L364,570l-3.8-4.5v-1c0-3.7,4.8-15.3,14.5-34.8l-1.7-.5.6-.6V528l-2.9-2.3-2.4.6-1.2-1.7.6-.5v-.6c-2.3,0-3.5-.6-3.5-1.7a137.5,137.5,0,0,1,22.7-13l11.6-23.2h-.6c-4.6,0-9.1-4.3-13.4-12.9v-5.1c3.2-3.9,11.4-7.1,24.5-9.5,7.3-1.6,21.4-3.3,42.4-5.1Zm-32.1,41.6h.6a170.5,170.5,0,0,0,34.8-20.8v-.6h-.6c-15.9.6-23.8,1.7-23.8,3.4Z" transform="translate(-188.6 -453)"/><path class="a" d="M536.8,457c0,1.4.7,2.1,2.2,2.1v1h-1.7v.6c1.8,0,2.7.3,2.7,1.1v.5h-2.2c0,1.1,1.2,1.6,3.3,1.6V465h-1.6v.5h6.6l5,2.7-.5.5v.5c1.8,0,2.7.4,2.7,1.1s-6.8,2.7-20.5,4.3c-4.6,0-13.4,2.5-26.5,7.4l-6.1,11.6h.6a89.2,89.2,0,0,1,17.1-1.6l1.1,1.6-1.6.6v.7c2.9,0,4.4.4,4.4,1.1l-2.8,1.1v.5h1.1l-.5,1.6c0,1.8,1.5,3.2,4.4,4.3v.5l-.5.6v.4q2.7,0,2.7,1.2v.5c0,1-11.5,3.9-34.7,8.5-2.9,0-6.6,5.4-11.1,16.1l39.8-6.4v.9h.7l2.8-.5c.5,1.8,1.3,2.7,2.7,2.7v1.7a3.7,3.7,0,0,0-2.7,1.6h-1.2v.5h3.4v1.1h-2.8l.6.5v.6l-.6.5c5.4,0,8.4.9,8.8,2.7l-.5.5c1.8.3,2.8.8,2.8,1.7-3.3,2-14.4,4.6-33.2,7.9-22.1,3.6-33.2,6.9-33.2,9.7a8.5,8.5,0,0,1-5,4.8h-.5l-3.3-2.7h-1.2l-2.7.5c0-.9-1.9-1.8-5.5-2.6l-1.7.5-.6-.5v-.6l.6-1.6h-1.1l-.6.6h-.5l-.6-.6v-.5q4.6-15.9,41-89.8c0-3.6,2.5-5.7,7.7-6.4l21.5.5,21.5-1.6Z" transform="translate(-188.6 -453)"/><path class="a" d="M587.1,453.2h5q37.5,0,44.3,23.9l.6,3.3V482c0,4.8-11.2,12.7-33.7,23.9,5.6,23,8.5,39.1,8.5,48.2l.5.6v.5l-.5,1.6.5,4.9-.5.6h-1.2c0-1.5-.3-2.2-1.1-2.2s-.4,1.6-1.1,1.6h-1.2l-.5-.6h-.5c-.6,1.5-1.2,2.2-1.7,2.2l-2.9-.5-1,1.1c-.3-1.9-1.3-2.8-2.9-2.8A300.3,300.3,0,0,1,582,514.5l-25.2,8.2c-2.3,5.1-4.2,8-5.6,8.6l-.6,2.8h-1.7l2.3-6v-.6h-.6l-2.6,6.1,1.1,1.1c-1.4,0-4.2,3.8-8.4,11.3-.5,0-1.7,2.4-3.4,7.1-.7,0-2.6,3.6-5.6,10.9h-.5c0-1.7-1.9-3.2-5.7-4.4l-1.1,1.1c0-.7-.6-1.1-1.7-1.1l-1.7.5a4.5,4.5,0,0,0-3.3-3.2v-1.7c0-8.7,10.3-33,30.9-72.6-7.7-5.2-11.6-9.3-11.6-12.5v-2.7c.3-1.9,7.2-5.1,20.7-9.7,1.5-3,11.4-4.5,29.4-4.5Zm-18,42.9h1.2c22.4-9.3,36.1-16.7,40.9-22.2v-.6l-11.2-.5h-1.1c-14.3,0-21.4,1.6-21.4,4.8a114.1,114.1,0,0,1-8.4,18.5Z" transform="translate(-188.6 -453)"/><path class="a" d="M660.4,454.2h2.9c4.5,0,8.4,2.8,11.6,8.5l-1.1,22.4a33.9,33.9,0,0,0,2.9,15.1c.8,0,4.7-3.8,11.6-11.2,1.3-.4,9-7.7,23.2-21.9,5.3-7.1,10.7-10.6,16.3-10.6l3.8-.6c3.8.8,5.9,2,6.4,3.4s2.6,1.5,5.2,4.5v1.1c0,3.9-5.6,17.6-16.8,41.5-3.9,9-6.4,13.4-7.8,13.4l.6.6v.6l-7.7,14.5c-.7,0-3.7,6.2-9.3,18.6l-3.5,5h-3.9V558l-2.3,1.1c0-.8-1.4-1.5-3.9-2.2l-1.1,1.1c-1.1,0-1.9-.9-2.4-2.8-1.5,0-2.3-.4-2.3-1.1v-3.8c0-7.3,5.8-21.3,17.4-42.1a111.2,111.2,0,0,0-17.4,20.1c-1.3,0-3,1.2-5.3,3.4h-.6a30.5,30.5,0,0,0-11.5-5.1c-3.9-2.5-7.4-10.2-10.5-22.9h-.6c-16.9,37.4-26.2,56.9-27.9,58.3h-1.1l-2.9-1.7-1.8.6-.5-.6-.6.6-1.2-2.2-1.1,1.1-.6-.6-5.2,1.1c-.9-2-2-3.1-3.5-3.3v-2.3c0-8.9,11-34.4,33.1-76.3,5.2-15.4,9.5-23,12.8-23l6.6-1.2Z" transform="translate(-188.6 -453)"/><path class="a" d="M809.6,458.6h4.2c10.4,0,17.8,3,22.3,8.8v5.2c0,7.4-2.8,11.1-8.5,11.1a48.9,48.9,0,0,0-13.2-1.8c-29.4,0-49.7,13.6-60.7,40.7l-1.2,5.9v1.7c0,5.8,4,9.5,12,11a88.2,88.2,0,0,0,19.9,1.7h10.9v1.2h-2.5v.6c1,0,2,.8,3,2.3h.6v1.7l-6.5.7v.5H791l-1.1,3.5H791v1.2h-1.1v.6h.3a2.1,2.1,0,0,1,2,2.1v.3h1.3l-.7-.6v-.5l.7-.7H797v1l.6.6-.6.6h-1.7v.6l1.1,1.2h1.8l-.6-.6v-.6l1.8-.6,1.9.6c0,3.5-14.1,5.2-42.1,5.2-17.7,0-30.2-8.3-37.3-25V531q0-27,37.9-57.5A87.5,87.5,0,0,1,809.6,458.6Zm-13.3,86.6h3.6v1.1h-3.6Z" transform="translate(-188.6 -453)"/></svg>