<svg xmlns="http://www.w3.org/2000/svg" baseProfile="full" width="960" height="265.685" viewBox="0 0 960 265.69"><path fill="#0E6939" d="M551.43 226.246l26.175 13.224v-43.421l-26.175 13.106v17.091z"/><path fill="#0F6B3A" d="M577.605 169.72v26.328l26.176-13.107-26.176-13.221z"/><path fill="#13A650" d="M577.605 196.048l26.176-13.107v43.416l-26.176 13.112v-43.421z"/><path fill="#8DC641" d="M472.915 195.829l52.345 26.44v43.416l-52.345-26.441v-43.415z"/><path fill="#2BB673" d="M525.26 222.269l26.171-13.114v43.421l-26.171 13.109v-43.416z"/><path fill="#13A650" d="M499.089 182.715l52.342 26.44-26.171 13.114-52.345-26.44 26.174-13.114z"/><path fill="#0E6939" d="M499.089 98.35l39.26 19.666 13.082-6.554v97.694l-52.342-26.442V98.35z"/><path fill="#8DC641" d="M551.43 111.462l26.175-13.112v97.697l-26.175 13.108v-97.693zM486.009 26.44V91.8l52.341 26.216V52.881L486.009 26.44z"/><path fill="#2BB673" d="M538.35 52.881l52.341-26.44v65.358l-52.341 26.217V52.881z"/><path fill="#0F9548" d="M538.35 0l-52.342 26.44L538.35 52.88l52.341-26.441L538.35 0z"/><g><path d="M638.589 73.381v56.04h-42.552V85.055l-5.405.003v6.722l-13.056 6.5.021 71.465 18.437 9.278.003-27.723h42.552v56.043h21.399V73.381h-21.399zM704.683 168.936c-15.755 0-28.523-13.072-28.523-29.184 0-16.111 12.768-29.171 28.523-29.171 15.753 0 28.521 13.06 28.521 29.171 0 16.112-12.768 29.184-28.521 29.184zm0-72.944c-23.633 0-42.792 19.593-42.792 43.76 0 24.176 19.159 43.772 42.792 43.772 23.627 0 42.792-19.596 42.792-43.772 0-24.167-19.165-43.76-42.792-43.76z"/><path d="M959.999 95.992H775.277c-13.772 0-24.951 11.427-24.951 25.531 0 14.098 11.179 25.528 24.951 25.528h19.978c5.914 0 10.704 4.904 10.704 10.937 0 6.055-4.79 10.948-10.704 10.948h-53.49v14.588h53.49c13.787 0 24.96-11.44 24.96-25.536 0-14.099-11.173-25.527-24.96-25.527h-19.978c-5.891 0-10.694-4.901-10.694-10.938 0-6.044 4.803-10.942 10.694-10.942h86.306v72.943h14.266v-72.943h40.47c13.199-12.4 43.68-14.589 43.68-14.589zM42.199 168.936c-15.536 0-28.135-13.072-28.135-29.184 0-16.111 12.599-29.171 28.135-29.171 7.768 0 14.805 3.268 19.9 8.547l9.941-10.316c-7.633-7.92-18.19-12.82-29.841-12.82C18.893 95.992 0 115.585 0 139.752c0 24.176 18.893 43.772 42.199 43.772 11.652 0 22.208-4.908 29.841-12.828l-9.941-10.304c-5.095 5.279-12.132 8.544-19.9 8.544zM115.346 139.752H90.028v-29.17h25.318c7.772 0 14.065 6.531 14.065 14.586 0 8.056-6.293 14.584-14.065 14.584zm28.139-14.584c0-16.114-12.603-29.176-28.139-29.176H75.959v87.533h14.07v-29.181h20.97l16.243 29.181h16.243l-17.458-31.366c10.242-4.364 17.458-14.799 17.458-26.991zM306.656 139.752H281.34v-29.17h25.316c7.777 0 14.074 6.531 14.074 14.586 0 8.054-6.297 14.584-14.074 14.584zm0-43.76h-95.651v72.945H163.18v-20.811h16.873v-14.581H163.18v-22.963h42.194v-14.59h-56.26v87.533h112.534v-14.588h-36.582v-20.811h16.883v-14.581h-16.883v-22.963h42.199v72.943h14.075v-29.181h25.316c15.545 0 28.134-13.063 28.134-29.176 0-16.114-12.589-29.176-28.134-29.176zM391.063 168.936h-36.578v-20.809h16.886v-14.583h-16.886v-22.963h36.578V95.992h-50.642v87.532h50.642v-14.588zM454.979 143.219h-35.786v-35.556h35.786c9.466 0 17.146 7.96 17.146 17.78 0 9.816-7.68 17.776-17.146 17.776zm44.11-1.092v-40.982c-4.372-5.31-11.4-11.173-36.99-11.173h-42.906c-11.513 0-24.968-2.364-24.968-2.364s1.934 8.84 1.934 20.055v100.289h23.034v-47.044h32.006s24.856 32.823 70.16 57.809c-36.283-44.804-38.634-62.453-38.634-62.453 6.446-3.121 12.664-8.664 16.364-14.137z"/></g></svg>