<svg id="Layer_1" xmlns="http://www.w3.org/2000/svg" viewBox="0 0 936.7 176.8"><defs><style>.cls-3{fill:#000}</style><clipPath id="clip-path"><path fill="none" d="M0 0h936.7v176.8H0z"/></clipPath></defs><g clip-path="url(#clip-path)"><path class="cls-3" d="M176.6 48.2h-11.8v-6.8h11.8V16.1h7.5v25.3h23.4v6.8h-23.4v49c0 23.5 14.1 26.6 21.2 26.6a18.54 18.54 0 0 0 4.1-.4v7a22.8 22.8 0 0 1-4.5.4c-9.3 0-28.4-3.4-28.4-33V48.2zM220.8 40.9h7.5v16.9a37.93 37.93 0 0 1-.7 7.3h.4c4.5-13.7 14.4-25 28.5-25a30 30 0 0 1 5.2.5v7.5a25.35 25.35 0 0 0-4.1-.4c-13.9 0-22.6 11.8-26.6 25a61.77 61.77 0 0 0-2.7 18.7v38.5h-7.5zM271.4 5.3h8.9v13h-8.9zm.7 35.6h7.5v89.2h-7.5zM302.1 40.9h7.5v10.7a47.82 47.82 0 0 1-.5 7.1h.4s7.3-20 32.1-20c23.9 0 38.5 19.1 38.5 46.7 0 28.4-16.6 46.7-39.6 46.7-23.2 0-31.2-20.2-31.2-20.2h-.4a40.26 40.26 0 0 1 .7 7.8v45.8h-7.5zm38.3 84c17.5 0 31.7-14.4 31.7-39.4 0-24.1-12.8-39.4-31-39.4-16.4 0-31.7 11.6-31.7 39.6 0 19.8 11.1 39.2 31 39.2M395.5 5.3h7.5v104.5c0 12.5 6.4 13.9 10.5 13.9a20.12 20.12 0 0 0 2.7-.2v7a15.14 15.14 0 0 1-3.2.4c-5.2 0-17.5-2-17.5-18.7zM465.6 38.8c24.3 0 36.4 19.1 36.4 40.7a42.11 42.11 0 0 1-.4 4.8h-71.5c0 25.9 17.5 40.7 38.2 40.7a40.32 40.32 0 0 0 27.6-11.2l4.1 6.2a48.61 48.61 0 0 1-31.7 12.3c-25.1 0-46-18.2-46-46.5 0-30.2 20.5-47 43.3-47m28.5 38.5c-.9-21.8-13.9-31.6-28.7-31.6-16.4 0-31.6 10.7-34.8 31.6zM557.8 38.8A45.84 45.84 0 0 1 604 85c0 26.6-20.7 47.3-46.2 47.3s-46.2-20.7-46.2-47.3a45.84 45.84 0 0 1 46.2-46.2m0 86.1c21.2 0 38.3-17.3 38.3-39.9 0-22.1-17.1-38.9-38.3-38.9S519.5 62.9 519.5 85c-.1 22.6 17.1 39.9 38.3 39.9M618.6 40.9h7.5v53.9c0 15.5 2 30.1 21.9 30.1 22.3 0 36.6-19.6 36.6-40.5V40.9h7.5v89.2h-7.5v-15.7a37.93 37.93 0 0 1 .7-7.3h-.4c-3 8.4-15.3 25.1-36.9 25.1-21.9 0-29.4-12.1-29.4-34.8zM754.1 38.8A45.84 45.84 0 0 1 800.3 85c0 26.6-20.7 47.3-46.2 47.3s-46.2-20.7-46.2-47.3a45.84 45.84 0 0 1 46.2-46.2m0 86.1c21.2 0 38.3-17.3 38.3-39.9 0-22.1-17.1-38.9-38.3-38.9S715.8 62.9 715.8 85c0 22.6 17.1 39.9 38.3 39.9M819 48.2h-11.8v-6.8H819V16.1h7.5v25.3h23.4v6.8h-23.4v49c0 23.5 14.1 26.6 21.2 26.6a18.55 18.55 0 0 0 4.1-.4v7a22.8 22.8 0 0 1-4.5.4c-9.3 0-28.4-3.4-28.4-33V48.2zM900.3 38.8c24.3 0 36.4 19.1 36.4 40.7a42.12 42.12 0 0 1-.4 4.8h-71.5c0 25.9 17.5 40.7 38.2 40.7a40.32 40.32 0 0 0 27.6-11.2l4.1 6.2a48.61 48.61 0 0 1-31.7 12.3c-25.1 0-46-18.2-46-46.5 0-30.2 20.5-47 43.3-47m28.5 38.5c-.9-21.8-13.9-31.6-28.7-31.6-16.4 0-31.6 10.7-34.8 31.6z"/><path class="cls-3" d="M556.2 124.9h49.2v7.3h-49.2zM122.4 0h2.1v176.8h-2.1zM0 15.8h8.8v29.6H0zM14.5 15.8h8.8v29.6h-8.8zM42.9 15.8h8.8v29.6h-8.8zM57.3 15.8h8.8v29.6h-8.8zM85.8 15.8h8.8v29.6h-8.8zM100.2 15.8h8.8v29.6h-8.8z"/></g></svg>